<svg viewBox="0 0 200 200" xmlns="http://www.w3.org/2000/svg"><path d="m13.24 100a86.76 86.76 0 1 1 86.76 86.76 86.77 86.77 0 0 1 -86.76-86.76" fill="#fff"/><path d="m100 13.25a86.75 86.75 0 1 0 86.76 86.75 86.85 86.85 0 0 0 -86.76-86.75m62.71 38.55a78.37 78.37 0 0 1 16.29 44.4h-32.65a78.44 78.44 0 0 1 16.36-44.4m-125.42 0a78.43 78.43 0 0 1 16.35 44.4h-32.64a78.37 78.37 0 0 1 16.29-44.4m0 96.4a78.4 78.4 0 0 1 -16.29-44.4h32.64a78.43 78.43 0 0 1 -16.35 44.4m66.51 30.8v-22.63h-7.6v22.63a78.61 78.61 0 0 1 -53.88-24.91 85.92 85.92 0 0 0 18.94-50.29v-7.6a85.9 85.9 0 0 0 -18.94-50.33 78.61 78.61 0 0 1 53.88-24.87v22.42h7.6v-22.42a78.59 78.59 0 0 1 53.87 24.91 85.94 85.94 0 0 0 -18.92 50.29v7.6a86 86 0 0 0 18.92 50.33 78.59 78.59 0 0 1 -53.87 24.87m58.91-30.84a78.44 78.44 0 0 1 -16.36-44.4h32.65a78.4 78.4 0 0 1 -16.33 44.4" fill="#061922"/><path d="m80.67 63.66v72.38h38.67v-9.95h-28.32v-62.43z" fill="#ec174c"/><path d="m132.49 87.91v-29.82c0-4.47-1.8-6.29-6.21-6.29h-52.64c-4.35 0-6.13 1.82-6.13 6.29v83.83c0 4.46 1.78 6.28 6.13 6.28h52.64c4.41 0 6.21-1.82 6.21-6.28v-29.86h-10.43v27h-44.2v-78.06h44.2v27z" fill="#006bb5"/><path d="m119.32 123.29v-59.63h-25.1l-.22 59.63h10l.16-18.59h5.11l-.07 18.59zm-10.08-28.5h-5v-21.18h5z" fill="#ec174c"/></svg>