<svg id="Layer_1" data-name="Layer 1" xmlns="http://www.w3.org/2000/svg" viewBox="0 0 200 200"><defs><style>.cls-1{fill:#fff;}</style></defs><title>brooklyn-nets-NDM=</title><path d="M179.1,39.47V34.86l-1.83-1C175.93,33.23,144.56,17.6,101,17.6H99c-43.56,0-74.93,15.63-76.18,16.31l-1.92,1v4.51C20.6,57.89,22.81,105,51.59,141.55c23.31,29.74,45.29,36.55,47.68,37.23l1,.28,1-.19c1-.29,23.32-6.81,47.3-37.22C177.18,105.09,179.48,58,179.1,39.47Z"/><path class="cls-1" d="M100.23,174.17c-1.82-.48-22.54-6.91-45-35.4C25.78,101.26,25.69,52.23,25.88,40.62V38.13A.09.09,0,0,0,26,38h0v-.1l.68-.28c1.63-.67,5.08-2.21,10.17-4a182.69,182.69,0,0,1,62.36-11h2a182.35,182.35,0,0,1,62.08,11c5.08,1.82,8.63,3.36,10.17,4l.67.28V38l.09.1v2.49c.29,11.61.2,60.64-29.35,98.15C122.4,167.26,102,173.69,100.23,174.17ZM146.28,140c28.21-35.79,30.42-81.94,30-100.07V36.59l-.57-.29c-1.25-.67-32.05-15.92-74.74-15.92H98.89C56.2,20.38,25.5,35.63,24.15,36.3l-.57.29v3.17c-.39,18.23,1.82,64.37,30,100.16,22.73,29,43.84,35.69,46.24,36.27l.29.09.29-.09C101.48,176,122.88,169.66,146.28,140Z"/><path class="cls-1" d="M154.54,61.25c-10.46-10.84-11.61-12.57-11.61-17.08s1.92-5,3.83-5a13.31,13.31,0,0,1,3.55.58c7.58,2.2,7.58,6.33,7.58,9.4v4.41a.86.86,0,0,0,.48.77c1.92.58,2.79,1,4.7,1.63a.58.58,0,0,0,.77-.09.75.75,0,0,0,.39-.68V51.56c0-4.61,0-12.38-13.53-16.31-9.5-2.69-14.39.19-14.39,8.44,0,6.81,4.22,10.84,11.22,17.65l1.35,1.35c8.25,8.15,9.88,10.74,9.88,15.83a6.56,6.56,0,0,1-.87,3.93c-.57.86-1.44,1.15-2.87,1.15a15.24,15.24,0,0,1-4.13-.67c-3.65-1.05-6.24-2.49-7.87-4.22-1.92-2.11-1.92-3.93-1.92-7.58V67.29c0-.38-.19-.76-.57-.76-2.11-.48-3.07-.68-5-1.06a.63.63,0,0,0-.67.19,1.54,1.54,0,0,0-.29.67v6.91c0,6.43,5.37,11.42,15.35,14.3a25.78,25.78,0,0,0,7.39,1.24c7.77,0,7.77-6.42,7.77-9.11C165.19,72.57,161.54,68.44,154.54,61.25ZM133.43,31.79a179.31,179.31,0,0,0-30.32-2.87.71.71,0,0,0-.86.53.62.62,0,0,0,0,.33v3.07a.92.92,0,0,0,.86.86c4.7,0,7.2.2,11.71.48V79.67a.83.83,0,0,0,.76.86c2,.19,3,.19,5,.48h.1a.52.52,0,0,0,.48-.29.57.57,0,0,0,.29-.57V34.86c4.51.48,7.1.87,11.8,1.73a.83.83,0,0,0,1-.86V32.66a1.21,1.21,0,0,0-.77-.87ZM98,29a164,164,0,0,0-25.52,2.3.76.76,0,0,0-.77.75V81.4A1.08,1.08,0,0,0,72,82a1.29,1.29,0,0,0,.57.19h.1A172,172,0,0,1,97.93,80a.85.85,0,0,0,.77-.87V76a.83.83,0,0,0-.29-.57.57.57,0,0,0-.58-.29A160.29,160.29,0,0,0,78.26,76.6V57.12a145.6,145.6,0,0,1,16-1.34.7.7,0,0,0,.77-.64.29.29,0,0,0,0-.13V51.94a1.29,1.29,0,0,0-.19-.57.72.72,0,0,0-.58-.2,145.85,145.85,0,0,0-16,1.25V35.15a147.17,147.17,0,0,1,19.67-1.44.78.78,0,0,0,.86-.7V29.88a.58.58,0,0,0-.28-.58A.55.55,0,0,0,98,29ZM65.31,32.56c-1.92.39-2.88.58-4.8,1.06a.74.74,0,0,0-.67.76l.39,35.79c0,2.4.09,4.61.19,6.62-4.8-12.47-9.88-25.33-15.07-38.28a.83.83,0,0,0-1-.48c-2.88,1-4.32,1.44-7.1,2.59a.84.84,0,0,0-.58.77V90.7a.67.67,0,0,0,.38.58c.1.19.29.19.48.19a.35.35,0,0,0,.29-.1c1.73-.67,2.69-1,4.41-1.63a.72.72,0,0,0,.58-.76c-.1-11.61-.1-23.32-.19-34.93,0-3.07,0-4.79-.1-7,5,13,10,25.52,14.68,37.51a.72.72,0,0,0,.88.51l.08,0c3-.67,4.51-1.05,7.48-1.63a.83.83,0,0,0,.68-.77V33.33a1.1,1.1,0,0,0-.29-.67A1.09,1.09,0,0,0,65.31,32.56Z"/><path class="cls-1" d="M127.67,144.14c-.48.38-1,.67-1.53,1.06-1.35,1-2.79,1.72-4.13,2.59a23.09,23.09,0,0,1-2,1.24c-4.9,3.07-10.84,6.43-17.08,8.35a43.89,43.89,0,0,1-5.18,1.25,24.17,24.17,0,0,1-4.41.38H93a32.41,32.41,0,0,1-5.38-.48,37.83,37.83,0,0,0,21.21,1.06,37.16,37.16,0,0,0,11.41-5,24.72,24.72,0,0,0,7.58-10.55C127.77,144.05,127.67,144.05,127.67,144.14ZM94.28,157.19a33.5,33.5,0,0,0,11.52-3.55,9.67,9.67,0,0,0,1.72-1c.48-.19,1-.48,1.44-.67,3.36-1.73,6.91-3.65,11.23-6,1.63-.76,3.07-1.63,4.6-2.49l1.73-1c.67-.38,1.34-.67,1.92-1.06.1-.09.1-.09.19-.09a36.26,36.26,0,0,0,1.15-6.62c-4.31,2.11-10.74,4-20.14,5.95a57.85,57.85,0,0,1-34.35-3.17c-7.1-3-10.46-7.1-11.8-9.3A36.31,36.31,0,0,0,79.7,154.6v-.1l1,.58a16,16,0,0,0,3.17,1.34,27.74,27.74,0,0,0,6.9,1C91.89,157.38,93,157.29,94.28,157.19Zm37.61-15.54c-.09-.1-.09-.1-.19-.1a1.77,1.77,0,0,0-.86.29c-.1.09-.19.19-.29.19s-.19.1-.29.19a30.23,30.23,0,0,1-3.55,6.81,33.69,33.69,0,0,0,5.28-7.1h-.1Zm1.44-9.12c-.19.19-.29.19-.38.39a2.76,2.76,0,0,0-.58.38,32.33,32.33,0,0,1-1.34,6.81c1.15-.38,1.63.1,1.73.39,0,.09,0,.09.09.09a34.84,34.84,0,0,0,3.65-12,9.5,9.5,0,0,1-3.17,3.93Zm-1-1.92c.1-.09.2-.09.29-.19a11.46,11.46,0,0,0,4-6.14,34.62,34.62,0,0,0-1.15-8.83.47.47,0,0,0-.19-.38,12,12,0,0,1-3.94,7.48,32.73,32.73,0,0,1,1,8.06ZM77.4,135c8.73,2.87,13.53,3.74,19.86,3.74,2.3,0,5-.1,8.25-.39A75.46,75.46,0,0,0,129.88,132a42.1,42.1,0,0,0-.77-7.68,9.79,9.79,0,0,1-5.47,1.34,38.8,38.8,0,0,1-9.11-1.43c-5.09-1.25-12.28-5.57-18.71-9.31-3.45-2.11-6.81-4-9.5-5.37-10.46-5.18-16.4-4.42-17.94-4.13a36.19,36.19,0,0,0-5.08,21c.76,1,4.31,5.37,14.1,8.64Zm5.37-29.84a141.33,141.33,0,0,1,13,6.62c7.77,4.12,15.73,8.44,21.2,9.79,4.8,1.24,8.73,1.05,11.52-.29v-.19c-.1-.2-.1-.39-.2-.58C126,110.66,113.66,89,92.17,89c-.86,0-1.72.09-2.68.09a36.12,36.12,0,0,0-19.77,14.1,13.07,13.07,0,0,1,3.17-.48,30.38,30.38,0,0,1,9.88,2.5Zm48,14.58a10.73,10.73,0,0,0,1.25-1.92c2.59-5,.38-10.55-.67-12.47A36.83,36.83,0,0,0,96.4,87.92c14.67.77,28.87,13.91,34.34,31.85Z"/><path class="cls-1" d="M114.43,131.57c0-2.68,0-6.62-3.16-9.69a7.06,7.06,0,0,0,.86-1.92,13.49,13.49,0,0,0,.58-4.51V108c-.1-2.78-.48-5.66-2.79-8.15a11.23,11.23,0,0,0-8.73-3.55h-10a4.41,4.41,0,0,0-3,1.24,4.08,4.08,0,0,0-1.15,2.88l.1,48.36a4,4,0,0,0,2,3.55,4.31,4.31,0,0,0,2.21.67h10.17a13.32,13.32,0,0,0,9.11-3.17h.1c3.35-3,3.64-6.52,3.74-9.88v-.1Z"/><path d="M101,119.68a9.8,9.8,0,0,1-3.07.38H96c-.29,0-.38-.1-.38-.38V104.13a.35.35,0,0,1,.31-.38h3.14a8.57,8.57,0,0,1,3.94.67,2.11,2.11,0,0,1,.86,1.15,10,10,0,0,1,.38,2.59v6.53C104.17,116.13,104.07,118.72,101,119.68Zm3.55,25c-.77.57-1.73.86-4,1H96.2a.54.54,0,0,1-.48-.58V125.82c0-.1,0-.29.29-.29h2c2.11.09,4.31.19,5.75,1.15a4,4,0,0,1,1.73,2.21,11,11,0,0,1,.38,3.07v7.1c.1,3.16-.09,4.7-1.34,5.66ZM111.84,132c0-2.79,0-6.05-2.78-8.35a7.64,7.64,0,0,0-2.11-1.25,6.82,6.82,0,0,0,2.69-3.64,11.86,11.86,0,0,0,.48-3.65V107.4c-.1-2.11-.29-4.61-2.12-6.53-1.43-1.63-3.83-2.49-6.71-2.49H90.83a1.17,1.17,0,0,0-.86.38,1.3,1.3,0,0,0-.29.86V150a1.44,1.44,0,0,0,.58,1.06,1.3,1.3,0,0,0,.67.19h10.55a11.14,11.14,0,0,0,7.48-2.49c2.5-2.31,2.79-5,2.88-8.06Z"/></svg>