<?xml version="1.0" encoding="utf-8"?>
<!-- Generator: Adobe Illustrator 22.1.0, SVG Export Plug-In . SVG Version: 6.00 Build 0)  -->
<svg version="1.1" id="Layer_4" xmlns="http://www.w3.org/2000/svg" xmlns:xlink="http://www.w3.org/1999/xlink" x="0px" y="0px"
	 viewBox="0 0 400 400" style="enable-background:new 0 0 400 400;" xml:space="preserve">
<style type="text/css">
	.st0{fill:#8E9090;}
	.st1{fill:#2E2A25;}
	.st2{fill:#FFFFFF;}
	.st3{fill:#0055B8;}
</style>
<g>
	<path class="st0" d="M163.5,250.4c19.7-3,39.4-2.1,56.6,5.1l2.1-4.6c-27.9-9-62.9-8.5-89,5.8l7.4-17.3c-32.8,8.9-54.9,27.4-77,46.4
		c16.2-38.2,51.3-69.6,91.1-81l-2,6.3c34.8-11.4,73-13.5,104-8.4l-7.2-9.4l17.8,4.5l11.4-17.1l4.5,21.1l17.5,5.7
		c0,0-12.7,5.3-12.1,5.6c66.1,27.2,44.9,117.7-17.9,118.2c-31.8,0.3-56.5-28.5-55.4-58.5C198.9,262.2,182.7,257.1,163.5,250.4"/>
	<path class="st0" d="M123.2,128.6c0-7.1,2.1-13.5,6.3-18.3c4.3-4.7,10.5-7.4,17.5-8.1c13.5-1.2,27.1-2,40.6-2.3v0l10-0.2v114.8
		l-0.2,9.9l-10-0.2c-1.7,0-15,0.5-17.5,0.6c-0.1,0-0.2,0-0.3,0l-10.8,1v-0.2l-6.7,0.3c-0.9,0-16.9,1.7-17.7,1.8l-11.4,1.8
		L123.2,128.6z M151,129.7l0-0.2c0.1-2,1.2-4.6,3.3-6.1c2-1.5,4.1-1.9,6.1-2c0,0,1.8-0.1,3.7-0.2l5.7-0.4v35.9v5l-5,0.3
		c-3,0.2-4.8,0.3-8.1,0.5l-5.7,0.4L151,129.7L151,129.7z"/>
	<path class="st0" d="M369.7,251.2c0,0-13.3-4.1-15.4-4.7c-0.1,0-0.1,0-0.2-0.1c0,0,0,0,0,0c-6-1.7-11.4-3.2-15.4-4.3l-7.2-1.8
		c-6.8-1.6-12.5-4.9-16.4-9.8c-3.9-4.9-5.8-11.2-5.8-18.1v-74.6c0-7.3,2.2-14,7.5-18.1c3.4-2.7,7.7-3.9,12.1-3.9
		c2.4,0,4.8,0.3,7.2,0.9c0.9,0.2,3.5,0.9,7.6,2.1c4,1.1,9.3,2.6,14.4,4.1c10.3,2.9,20.4,5.8,20.4,5.8l3.9,1.1v50.7l-32.5-10
		l-0.5-3.3c0,0-0.9-5.9-1.8-11.4l0,56.5v0.1l0,0.1c0,0,0,0,0,0.1c0,0.1,0.1,0.3,0.1,0.4c0,0-0.1,0.1,0.9,0.4c0,0,2.1,0.6,3.5,0.9
		c0.9-3.8,1.8-7.8,1.8-7.8l1.3-5.6l27.2,8.2l0.1,45.9L369.7,251.2z"/>
	<path class="st0" d="M15.5,144.3c0-5.8,2.7-10.5,5.8-13.7c3.2-3.3,6.8-5.4,10.1-6.4c14.9-4.8,36-8.1,37.1-8.2l5.7-0.9
		c2.4-1.4,5-2.4,7.8-2.9c7.4-1.5,29.6-5.7,30.6-5.9v0l11.6-2.2l0,116.7l-0.2,8.7l-8.6,1c-0.7,0-16.9,2.8-17.6,3l-12,2.7v-18.9
		L52,225.3v11.5l-0.1,7.6l-7.3,1.8c-0.1,0-2.6,0.7-5.2,1.5c-2.7,0.8-5.8,1.8-8,2.5c-1.4,0.4-2.6,0.8-2.7,0.9l-13.2,4.9
		C15.5,255.9,15.5,144.3,15.5,144.3z"/>
	<path class="st0" d="M297.8,233.1c0,0,0,0-0.2,0c-0.2,0-0.4-0.1-0.6-0.1c-0.5-0.1-1.2-0.2-2-0.4c-1.6-0.3-3.7-0.6-5.8-1
		c-4.1-0.7-8.5-1.4-8.7-1.4l-4-0.4l-4.8-0.5v-124l10.6,0.8c1.1,0.1,3.5,0.5,6.8,1c3.2,0.5,7,1.2,9.7,1.6c1.9,0.3,3,0.5,3.8,0.7
		l7.4,1.9l0,112.3l-0.1,12.1L297.8,233.1z"/>
	<path class="st0" d="M260.2,227.6c-1.1-0.2-7.8-0.9-14.7-1.4c-6.7-0.5-14-1-18.6-1.3l-5.1-0.2c-7.1-0.3-13.5-2.5-17.9-7.1
		c-4.5-4.6-6.5-11-6.5-18.1v-77.7c0-6.2,1.8-11.9,6-15.9h0c5.3-5,11.8-5.5,15.8-5.5c1.1,0,2.1,0,2.7,0.1l0.7,0c0.3,0,0.5,0,0.8,0
		c1.4,0,3.1,0.1,5.7,0.2l2.9,0.1l0,0.1c2.8,0.2,6.3,0.5,10.9,0.8c15.2,1.2,19.2,1.6,21.5,2.1c0.8,0.1,1.8,0.5,2.1,0.7l5.7,2.7l0,6.2
		v2.1v32.1l-32.2-4.2l-0.8-3.7c0,0-0.9-4.1-1.7-7.7c-0.4,0-0.9-0.1-1.4-0.1l0.1,14.8l0,3.2l2-0.1c0,0,0.1,0,0.1,0h0c0,0,0.1,0,0.1,0
		h0.1c0.9,0,2.1,0.1,4.1,0.3c1.9,0.2,4.3,0.4,6.8,0.6c5,0.4,10.4,1,13.1,1.3c0.8,0.1,1.2,0.1,1.9,0.3l7.7,1.7l-0.1,75.8L260.2,227.6
		z"/>
	<path class="st1" d="M126.5,128.6c-0.2-13.1,8-22.1,20.9-23.1c13.4-1.2,27-2,40.4-2.3l6.7-0.1v111.5l-0.1,6.7l-6.7-0.1l0,0
		c-1.7,0-17,0.5-18.1,0.7l-7.3,0.7v-43.5c-1.3,0.1-2.5,0.2-3.8,0.3l0,37.1l-0.1,6.2l-6.3,0.3c-1.2,0-16.8,1.6-18,1.8l-7.7,1.2
		L126.5,128.6z M158.5,154.9c1.3-0.1,2.5-0.2,3.8-0.3v-25.9c-0.9,0.1-1.5,0.1-1.5,0.1c-1.2,0.1-1.8,0.3-2,0.5
		c-0.2,0.2-0.3,0.2-0.4,0.8L158.5,154.9L158.5,154.9z"/>
	<path class="st1" d="M370.6,248.1c0,0-11.8-3.6-14.8-4.6c-0.3-0.1-0.5-0.1-0.6-0.2l-0.1,0c-6.6-1.9-12.5-3.5-16.6-4.6l0,0l-6.2-1.5
		c-12.6-2.9-19.9-12.1-19.7-24.8v-74.6c0-6.8,2-12.3,6.3-15.6c2.8-2.2,6.2-3.2,10.1-3.2c2,0,4.2,0.3,6.4,0.8
		c2.1,0.5,42.2,11.9,42.3,11.9l1.5,0.4V176l-26.4-8.1l-0.2-1.3c0,0-2-12.9-2.9-18.2c-1.6-0.5-2.8-0.8-3.6-1.1l-0.1,0l-0.7-0.2
		l-0.9-0.3c0,0,0,0,0,0l0,65.4l0,0.3c0,0.2,0.1,1.1,0.5,1.8c0.5,0.9,1.3,1.6,2.9,2.1c0,0,3.6,0.9,6.7,1.8c1-4.4,2.5-11.1,2.5-11.1
		l0.5-2.2l21.6,6.5l0.1,39.2L370.6,248.1z"/>
	<path class="st1" d="M18.7,144.3c0.1-9.6,8.3-15.3,13.6-17.1c14.5-4.7,35.7-8,36.6-8.1l6.3-1c2.2-1.3,4.7-2.3,7.3-2.9
		c7.3-1.5,29.5-5.7,30.5-5.9v0l7.8-1.4l0,112.9l-0.1,5.9l-5.8,0.7c-1.2,0.1-16.9,2.8-18,3.1l-8.1,1.8v-91.3c-0.1,0-0.1,0-0.2,0
		c-2.3,0.7-2.7,1.2-3.2,3.7v0.1c0,6.1,0,67.7,0,67.7v1.7l-31.8,7.5v-72.8c-0.2,0.1-0.4,0.1-0.5,0.1c-1.1,0.3-2.3,0.9-3.1,1.5
		c-0.8,0.7-1.1,1.2-1.1,2.2v84l-0.1,5.1l-5,1.2c-1.1,0.3-15.1,4.6-16.1,5l-8.9,3.3C18.7,251.3,18.7,144.3,18.7,144.3z"/>
	<path class="st1" d="M298.6,230c-1.1-0.3-16.6-2.8-17.8-3l-4-0.4l-1.9-0.2V108.7l7.1,0.6c1.8,0.2,18,2.9,19.8,3.3l5,1.3l0,109.7
		l-0.1,8.2L298.6,230z"/>
	<path class="st1" d="M260.8,224.4c-3.1-0.6-24.2-2.2-33.7-2.8l-5.2-0.2c-6.6-0.3-12-2.3-15.8-6.2c-3.7-3.9-5.6-9.3-5.6-15.9v-77.6
		c0-5.6,1.6-10.4,5-13.6c4.3-4.1,9.9-4.6,13.6-4.6c1,0,1.9,0,2.6,0.1l0.7,0c0.3,0,0.5,0,0.8,0c2.8,0,7.9,0.4,19.1,1.2
		c15.1,1.2,19.2,1.6,21.1,2c0.6,0.1,1.1,0.3,1.4,0.5l3.8,1.8l0,4.2v2.1v28.5l-26.3-3.4l-0.3-1.5c0,0-1.4-6.2-2.2-10.1
		c-0.5,0-1-0.1-1.4-0.1c-0.2,0-4.2-0.3-4.3-0.3c-0.2,0-0.4,0-0.6,0c-0.4,0-0.7,0-1,0.1c0,0.1,0,0.1,0,0.2c0,0,0,0.7,0,0.9
		c0,0,0,0.7,0,0.7l0.1,16.3l0,6.5l5.4-0.2c0.1,0,0.2,0,0.2,0h0c1.3,0,7,0.5,12.8,1c5.9,0.5,11.3,1.1,12.5,1.3l5.2,1.1l-0.1,69.3
		L260.8,224.4z M232.6,195.7c0,0.1,0.1,0.9,0.3,1.3c0.2,0.3,0.5,0.6,2,0.7c0,0,0.7,0,1.6,0.1v-22.1c-1.4-0.1-2.9-0.2-2.9-0.2
		l-1.1-0.1L232.6,195.7z M228.3,128.7L228.3,128.7C228.3,128.7,228.3,128.7,228.3,128.7"/>
	<path class="st2" d="M187.9,107.9L187.9,107.9l0-1.1c-13.4,0.3-26.9,1-40.2,2.3c-11.3,0.9-17.8,8.1-17.7,19.6l0,93.1l3.5-0.6
		c1-0.2,17.4-1.8,18.4-1.9l1.9,0l1,0v-2.9v-40.5c2.7-0.2,8.1-0.6,11-0.8v43.5l3.3-0.4c0.9-0.1,16.1-0.7,18.4-0.7h0.1h0l0,0l2,0.1
		l1.1,0l0-3.1V106.8l-3,0.1L187.9,107.9z M165.9,124.9V158c-2.8,0.2-8.1,0.5-11,0.7v-29c0.3-2,1-4.2,5.7-4.6
		C160.6,125.2,163.5,125,165.9,124.9"/>
	<path class="st2" d="M375.4,214.2l-15.4-4.6l-0.2,1.1c0,0-1.9,8.4-2.7,12.2c-6.2-1.8-8.9-2.6-10.3-2.9v0c-3.2-0.9-4.5-2.6-5.2-4
		c-0.8-1.5-0.9-3.1-0.9-3.5v-0.3v-65.9c0-0.3,0.1-1.7,0.7-2.5c0.3-0.4,0.8-0.7,1.8-0.7c0.5,0,1.2,0.1,2,0.3l0.1,0h0.1l0.1,0
		c0.2,0,2.8,0.8,7.3,2.1c0.6,3.8,2.9,18.9,2.9,18.9l0.1,0.7l19.6,6v-36.3l-0.8-0.2c0,0-38.3-10.9-40.2-11.4c-2-0.5-3.9-0.8-5.6-0.8
		c-3.1,0-5.7,0.8-7.8,2.4c-3.3,2.6-4.9,7-4.9,12.8v74.6C316,223.6,322,231,333,233.7l0.2,0.1l0.4,0c1.3,0.2,11.8,3.1,22.5,6.1
		l15.6,4.8l3.9,1.2L375.4,214.2z"/>
	<path class="st2" d="M83.4,118.8c-4.1,0.8-7.6,2.9-10.4,5.7v-2.4l-3.4,0.5c-0.9,0.1-21.8,3.4-36.1,8c-4.6,1.5-11,6.5-11.1,13.6
		v101.9l4.1-1.6c0.8-0.3,15.6-4.9,16.5-5.1l1.4-0.3l0.8-0.2v-86.3c0-4.4,4.1-6.4,6.8-7.2c0.9-0.3,3.1-0.7,5.1-1V217l24.6-5.8v-2.4
		c0-6.2,0-57.9,0-64.2v-0.4c0.6-4,2.3-6,6-6.9c0,0,0,0,0.1,0c0.6-0.1,2.6-0.4,4.5-0.7v2.2v88.9l3.7-0.9c0.9-0.2,17.5-3,18.5-3.1
		l1.7-0.1l1-0.1l0-2.7l0-108.5l-3.5,0.6C113.8,112.9,90.6,117.2,83.4,118.8"/>
	<path class="st2" d="M281.7,112.9l-2.1-0.2l-1.1-0.1v110.5l1,0.1l1.7,0.2c0.9,0.1,17.3,2.8,18.2,3l3.7,0.9l0-3.8V116.6l-2.2-0.6
		C299.5,115.7,283.1,113,281.7,112.9"/>
	<path class="st2" d="M238.3,156.7L238.3,156.7c-0.1,0-0.1,0-0.2,0l-1.8,0.1l-1,0v15.3l1,0.1c0,0,2.3,0.2,3.9,0.3v29.3
		c-2.4-0.2-5.5-0.4-5.5-0.4c-2.5-0.2-4-1.1-4.9-2.5c-0.7-1.2-0.8-2.6-0.8-3.2l0-49l-0.1-16.3c0,0,0-0.7,0-0.7v-0.2l0-0.8
		c0-0.9,0.2-1.9,0.8-2.6c0.6-0.7,1.8-1.2,3.8-1.2c0.3,0,0.5,0,0.8,0l0,0l0.1,0l0.3,0c0.5,0,3.3,0.2,8,0.6c0.7,3.1,2.4,10.9,2.4,10.9
		l0.2,0.7l19.7,2.6v-24.4v-2.1l0-1.2l0-0.6l-1.7-0.9c-0.8-0.3-1.6-0.6-21.3-2.1c-11.9-0.9-16.7-1.2-19-1.2c-0.2,0-0.4,0-0.6,0
		l-0.9,0c-0.7,0-1.6-0.1-2.5-0.1c-3.3,0-7.7,0.5-11,3.6v0c-2.7,2.6-3.9,6.4-3.9,11v77.7c-0.1,11.3,6.4,18.1,17.9,18.4h0.1h0.1l0.3,0
		c0,0,0,0,0.1,0c3,0,34.5,2.2,39,3.1l3.5,0.7l0.1-62.1l-2.3-0.5C261.1,158.6,240.5,156.7,238.3,156.7"/>
	<path class="st3" d="M238.3,169.4c1,0.1,4.9,0.3,4.9,0.3v35.2c-2.9-0.2-5.8-0.4-8.6-0.6c-4.2-0.3-6.3-2.3-7.3-4
		c-1.1-1.9-1.2-3.9-1.2-4.7c0-0.8,0-29.7,0-48.9c0-9.4-0.1-16.4-0.1-16.9c0-0.1,0-0.5,0-1.1c0-1.2,0.3-3,1.6-4.5
		c1.5-1.7,3.8-2.4,7-2.2c0-0.1,4.9,0.3,10.6,0.8l2.6,11.8l14.3,1.9v-21v-2.2c-1.2-0.6-39.9-3.5-39.9-3.1l-0.7,0
		c-3.1-0.1-8.2-0.3-11.3,2.7c-2,1.9-3,4.9-3,8.9v77.6c0,10,5.1,15,15,15.5c0-0.3,34.9,2.1,39.9,3.1c0-1.2,0.1-54.9,0.1-56.2
		c-1.2-0.2-22.6-2.2-23.8-2.2L238.3,169.4L238.3,169.4z M151.9,129.7c0.2-2,1.3-6.9,8.5-7.5c2.8-0.2,5.6-0.4,8.5-0.5v39.1
		c-5.6,0.3-11.3,0.7-16.9,1.1L151.9,129.7L151.9,129.7z M133,128.6c0,0,0,88.3,0,89.5c1.2-0.2,17.7-1.9,18.9-1.9V173
		c5.6-0.5,11.3-0.9,16.9-1.2v43.3c1.2-0.1,17.9-0.7,19.1-0.7V109.8c-13.3,0.3-26.7,1-39.9,2.2C138.1,113,133,118.7,133,128.6
		 M281.4,220.5c1.2,0.1,17.6,2.8,18.7,3.1V119c-1.1-0.3-17.6-3-18.7-3.1V220.5z M70,136.6v-11c0,0-21.5,3.4-35.6,7.9
		c-3.7,1.2-9.1,5.4-9.1,10.8v97.6c1.1-0.4,15.8-4.9,16.9-5.2v-84c0-5.9,4.8-8.8,8.9-10c2.3-0.7,9-1.7,9-1.7v72.3l18.7-4.4
		c0,0,0-64.6,0-64.8c0.6-5.1,3.3-8.4,8.3-9.6c4.7-0.8,8.2-1.3,8.2-1.3l0,5.7v85.2c1.1-0.3,17.7-3.1,18.9-3.2c0-20.9,0-104.9,0-104.9
		s-23.1,4.3-30.4,5.9C77,123.1,71.5,128.7,70,136.6 M372.5,216.4l-10.2-3.1l-3,13.3c-6.6-2-13.3-3.9-13.3-3.8
		c-4.1-1.1-6.1-3.6-7.1-5.5c-1.1-2.1-1.2-4.1-1.2-4.9c0-0.1,0-0.2,0-0.3h0c0-0.7,0-65.8,0-65.9c0-0.8,0.1-2.7,1.2-4.2
		c1-1.3,3-2.7,7-1.6c0-0.1,4.4,1.2,9.5,2.7l3.1,19.6l14,4.3v-29.9c0,0-36.9-10.6-38.7-11.1c-9.7-2.4-14.7,1.6-14.7,11.6v74.6
		c0,10,5,16.1,14.7,18.4c0-0.2,12.4,3.2,23.1,6.2l15.6,4.8L372.5,216.4z"/>
	<path class="st3" d="M238.3,169.4c1,0.1,4.9,0.3,4.9,0.3v35.2c-2.9-0.2-5.8-0.4-8.6-0.6c-4.2-0.3-6.3-2.3-7.3-4
		c-1.1-1.9-1.2-3.9-1.2-4.7c0-0.8,0-29.7,0-48.9c0-9.4-0.1-16.4-0.1-16.9c0-0.1,0-0.5,0-1.1c0-1.2,0.2-3,1.5-4.5
		c1.5-1.7,3.8-2.4,7-2.2c0-0.1,4.9,0.3,10.6,0.8l2.6,11.8l14.3,1.9v-21v-2.2c-1.2-0.6-39.9-3.5-39.9-3.1l-0.7-0.1
		c-3.1-0.1-8.2-0.3-11.3,2.7c-2,1.9-3,4.9-3,8.9v77.7c0,10,5.1,15,15,15.4c0-0.3,34.9,2.1,39.9,3.1c0-1.2,0.1-54.9,0.1-56.2
		c-1.2-0.2-22.6-2.2-23.8-2.2L238.3,169.4L238.3,169.4z M281.4,220.5c1.2,0.1,17.6,2.8,18.7,3.1V118.9c-1.1-0.3-17.5-3-18.7-3.1
		V220.5z M70,136.6v-11c0,0-21.5,3.4-35.6,7.9c-3.7,1.2-9.1,5.4-9.1,10.8v97.6c1.1-0.4,15.8-5,16.9-5.2v-84c0-5.9,4.8-8.8,8.9-10
		c2.3-0.7,9-1.7,9-1.7v72.3l18.7-4.4c0,0,0-64.6,0-64.8c0.6-5,3.3-8.4,8.3-9.6c4.7-0.8,8.2-1.3,8.2-1.3l0,5.7v85.2
		c1.1-0.3,17.7-3.1,18.9-3.2c0-20.9,0.1-104.9,0.1-104.9s-23.2,4.3-30.4,5.9C77,123.1,71.5,128.7,70,136.6"/>
	<path class="st2" d="M141.5,72.2c-0.5-0.6-1.2-1.1-2-1.3h0c-0.6-0.2-1.1-0.2-1.7-0.2c-0.9,0-1.7,0.1-2.4,0.2c-2,0.4-4,0.8-6,1.1
		c-1.5,0.3-2.8,0.8-3.8,1.4c-0.7,0.5-1.4,1.1-1.8,1.8c-0.5,0.9-0.8,1.9-0.8,2.9v19.5c0,1.1,0.2,2,0.8,2.8c0.5,0.6,1.2,1,2,1.2
		c0.5,0.1,1,0.2,1.4,0.2c0.9,0,1.9-0.2,2.6-0.3c2-0.4,4-0.8,6-1.1c1.5-0.3,2.8-0.7,3.9-1.3c0.8-0.5,1.4-1,1.8-1.7
		c0.6-0.9,0.8-1.9,0.8-2.9V75C142.4,73.9,142.1,72.9,141.5,72.2 M135,94.8c0,0,0,0.2-0.3,0.5l0,0h0c-0.2,0.2-0.6,0.4-1.2,0.5
		c-0.5,0.1-1.6,0.3-2.4,0.5c-0.2,0-0.3,0-0.4,0c-0.3,0-0.3-0.1-0.3-0.1h0c0,0,0-0.2-0.1-0.2v0V77.7v0c0,0,0-0.2,0.2-0.5
		c0.2-0.2,0.6-0.4,1.3-0.6c0.7-0.1,1.4-0.3,2.1-0.4c0.2,0,0.4-0.1,0.5-0.1c0.3,0,0.4,0,0.5,0.1c0.1,0,0.1,0.2,0.1,0.2L135,94.8
		L135,94.8z"/>
	<path class="st2" d="M233.2,68.4c-0.5-0.7-1.1-1.2-1.9-1.6c-1.4-0.7-2.9-0.9-4-0.9c-4-0.3-8-0.5-12-0.6l-1.2,0v29.5l1.1,0
		c1.7,0.1,3.5,0.1,5.2,0.2l1.2,0.1V70.5c0.8,0,1.6,0.1,2.4,0.1c2.9,0.3,2.4,1.2,2.5,1.5v23.2l1.1,0.1c1.7,0.1,3.4,0.2,5.1,0.4
		l1.2,0.1v-1.2c0-2.8,0-21.4,0-23.4C234,70.3,233.7,69.2,233.2,68.4"/>
	<path class="st2" d="M256.9,71.2c-0.5-0.7-1.1-1.3-1.9-1.7l0,0h0c-1.1-0.6-2.4-1-3.9-1.2c-1.6-0.3-9.7-1.2-11.9-1.4l-1.2-0.1
		l0,29.6l1,0.1c3.9,0.4,7.9,0.9,11.8,1.4c0.7,0.1,1.3,0.1,1.9,0.1c0.8,0,1.5-0.1,2.1-0.3c0.8-0.2,1.5-0.7,2.1-1.3
		c0.6-0.8,0.9-1.8,0.9-2.8V74.1C257.7,73,257.4,72,256.9,71.2 M250.1,92.3c-0.2,0.1-0.6,0.2-1.1,0.2c-0.3,0-0.7,0-0.9-0.1
		c-0.9-0.1-1.8-0.2-2.7-0.3V72.5c0.8,0.1,1.6,0.2,2.4,0.3c0.8,0.1,1.5,0.3,2,0.6c0.4,0.3,0.6,0.5,0.6,1.2c0,2.1,0,16.6,0,17
		C250.3,92.2,250.2,92.2,250.1,92.3"/>
	<path class="st2" d="M165.9,95.3c0-3.3,0-6.6,0-10c0-1.1-0.6-2-1.5-2.6v0c-0.1-0.1-0.2-0.2-0.4-0.2c0.8-0.6,1.7-1.5,1.7-3.1v-7.5
		c0-1.1-0.3-2.1-0.9-2.8c-0.5-0.6-1.2-1.1-2-1.4c-0.7-0.2-1.5-0.3-2.4-0.3c-0.5,0-1,0-1.6,0.1c-3.9,0.5-7.8,1-11.7,1.5l-1,0.1v29.6
		l1.3-0.2c1.7-0.3,3.4-0.5,5.1-0.7l1-0.1V86.3c0.9-0.1,1.7-0.2,2.6-0.3c0,0,0.1,0,0.1,0l0.1,0c0.2,0,0.5,0,0.7,0
		c0.7,0,1,0.1,1.2,0.2c0.2,0.1,0.2,0.3,0.2,0.7v10.2l1.3-0.1c1.7-0.2,3.4-0.4,5.1-0.6l1-0.1L165.9,95.3z M158.4,79.4L158.4,79.4
		c0,0.2,0,0.5-0.4,0.9l0,0c-0.4,0.3-1.1,0.6-2.1,0.8c-0.7,0.1-1.5,0.2-2.2,0.3v-8.3c0.8-0.1,1.7-0.2,2.5-0.3
		c0.4-0.1,0.8-0.1,1.1-0.1c0.7,0,1,0.1,1.1,0.2c0.1,0.1,0,0,0.1,0.3c0,0,0,0.1,0,0.1v0v4.8C158.4,78.8,158.4,79.2,158.4,79.4"/>
	<path class="st2" d="M186.5,88.6v-3.8l-1.2,0.1l-4.5,0.3l-1.7,5.2c-0.7,0-1.3,0.1-2,0.1V65.8l-1.2,0.1c-1.7,0.1-3.5,0.3-5.2,0.4
		l-1,0.1V96l1.2-0.1c4.8-0.4,9.7-0.7,14.6-0.9l1.1,0v-1.1c0-0.9,0-1.8,0-2.7L186.5,88.6L186.5,88.6z"/>
	<path class="st2" d="M209,65.1c-1.4,0-5.5-0.1-8.5-0.1c-1.6,0-2.9,0-3.5,0c-1.6,0-2.9,0.2-4,0.7c-0.8,0.4-1.5,0.9-2,1.5
		c-0.6,0.8-0.9,1.8-0.9,2.9c0,1.9,0,20.6,0,23.4v1.2l1.2,0c1.7,0,3.4-0.1,5.2-0.1l1.1,0v-11c1.5,0,2.9,0,4.4,0h0.6v11l1.1,0
		c1.7,0,3.5,0,5.2,0.1l1.2,0V65.1L209,65.1z M202.6,78.7c-0.4,0-0.9,0-1.3,0c-1.2,0-2.5,0-3.7,0v-7.6l0-0.1c0-0.1,0-0.3,0.3-0.5
		c0.3-0.3,1-0.5,2.2-0.5c0.6,0,1.2,0,1.8,0c0.2,0,0.5,0,0.7,0L202.6,78.7L202.6,78.7z"/>
	<path class="st2" d="M279.8,75.4L279.8,75.4c-0.4-0.7-1-1.3-1.7-1.8c-1.4-0.9-2.8-1.2-4-1.5c-2-0.4-4-0.8-6-1.2
		c-0.8-0.1-1.5-0.2-2.2-0.2c-0.6,0-1.2,0.1-1.8,0.2c-0.8,0.2-1.5,0.6-2,1.2c-0.6,0.8-0.9,1.8-0.9,2.8v19.5c0,1.1,0.2,2.1,0.8,2.9
		c0.4,0.7,1.1,1.3,1.8,1.7c1.3,0.8,2.8,1.1,4,1.4c2,0.4,4,0.8,6,1.2c0.9,0.2,1.7,0.3,2.5,0.3c0.5,0,1,0,1.4-0.1
		c0.8-0.2,1.6-0.6,2.1-1.2c0.6-0.8,0.9-1.8,0.9-2.8V78.3C280.6,77.2,280.3,76.2,279.8,75.4 M273.3,96.1
		C273.3,96.1,273.3,96.2,273.3,96.1c0,0.1,0,0.1,0,0.1v0h0c-0.1,0-0.2,0.1-0.5,0.1c-0.2,0-0.4,0-0.6-0.1c-0.5-0.1-1.5-0.3-2.4-0.5
		c-0.6-0.1-1-0.4-1.1-0.7c-0.1-0.2-0.1-0.4-0.1-0.4v0V76.3v0v0c0,0,0,0,0,0c0.1,0,0.2-0.1,0.5-0.1c0.2,0,0.4,0,0.6,0.1
		c0.7,0.1,1.4,0.3,2.1,0.4c0.6,0.1,1,0.3,1.2,0.5c0.4,0.3,0.3,0.6,0.3,0.6L273.3,96.1L273.3,96.1z"/>
	<polygon class="st2" points="157.2,236.2 160.9,234.4 163.9,237.1 163.3,233 166.9,230.9 162.8,230.2 162,226.2 160,229.9 
		155.9,229.5 158.8,232.4 	"/>
	<path class="st1" d="M281.9,213.2c3.6-1.6,10.4-4.6,10.4-4.6l0.5-0.2l-0.5-0.2c0,0-10.9-3.6-13.3-4.4c-0.4-2.5-2.1-14.3-2.1-14.3
		l-0.1-0.6l-4,6.5c0,0-2.3,3.7-3.5,5.7c-2.6-0.7-13.9-3.5-13.9-3.5l-0.6-0.1l0.4,0.5c0,0,4.6,5.9,7.4,9.5
		c-11.4-2.5-24.5-3.9-39.5-3.9c-4.9,0-10.1,0.2-15.4,0.5c-20.5,1.2-40.6,5-60,12l2.2-6.6l-0.4,0.1c-30.3,9.5-63.4,37.8-78,65.9
		l0.3,0.2c20.7-19.4,48.7-34.9,73.8-40.5l-6.6,15.4l0.5-0.2c11.7-5.6,27-8.1,42.5-8.1c15.8,0,31.8,2.6,44.1,7.1l-4.7,10.3
		c-11.3-5.2-27.5-8.6-41-8.6c-2.4,0-4.7,0.1-6.9,0.3l0,0.4c16,4.5,32.5,9.6,45.6,20.1c-0.1,1.1-0.1,2.2-0.1,3.3
		c0,27.6,23.8,52.6,51.8,52.6c0.2,0,0.4,0,0.6,0c30.8-0.4,53.7-28.6,53.7-58.1C325,247.8,312.6,225.5,281.9,213.2"/>
	<path class="st0" d="M265.1,263.8c-11.4,0-22.8-4.2-34.2-8.4c-3,6.4-4.6,13.1-4.6,19.9c0,3.6,0.4,7.3,1.3,10.9c0.9,0,1.9,0,2.8,0
		c22.1,0,45.5-6.1,64.5-17.4c-2.2-4.1-4.9-7.9-7.7-11.5C279.8,262,272.5,263.8,265.1,263.8"/>
	<path class="st0" d="M229.7,290.5c-0.2,0-0.5,0-0.7,0c6.9,17.9,22.7,29.7,42.1,30c6.2-15.2,13-31.9,28.7-39.7
		c-0.8-2.7-1.8-5.4-2.9-8.1C276.6,284.5,253,290.5,229.7,290.5"/>
	<path class="st0" d="M277.4,234.4c-6.9-2.6-11.2-3.4-11.7-3.5c-1.9,0.3-4.5,0.5-6.6,0.9c11.7,4.6,20.3,10.3,29,19.9
		c4.5-3.5,8.4-7.5,11.1-12.4c-7.9-7.7-22.9-17.2-60.2-20.1c15.8,3.8,30.2,8.8,38.7,14.8L277.4,234.4z"/>
	<path class="st0" d="M172.8,229.2c2.3-0.1,4.8-0.1,7.4-0.1c26.5,0,67.4,3.1,83.3,22l-0.3,0.3c-5.5-3.1-16.5-8.1-23.3-8.1
		c-0.2,0-0.4,0-0.6,0c-2.4,2.6-4.4,5.5-6.3,8.4c10.6,3.9,21.3,7.8,32,7.8c6.7,0,13.3-1.5,19.9-5.5c-18.4-20-49.5-28.8-78.8-28.8
		C194.4,225.3,183,226.7,172.8,229.2"/>
	<path class="st0" d="M298.2,266.7c5.1-3.5,9.6-7.1,13.6-11.8c-2.5-4.8-6.9-10.2-10-13c-2.9,5.1-6.7,9.4-11.2,13.1
		C293.2,258.6,296,262.8,298.2,266.7"/>
	<path class="st0" d="M275.5,320.3c9.3-1.1,17.9-4.3,25.1-10.4c1.1-4.1,1.6-8.4,1.6-12.7c0-4.1-0.4-8.2-1.2-12.2
		C286.9,291.8,281.1,306.6,275.5,320.3"/>
	<path class="st0" d="M306.3,299.9c0,1.4,0,2.8-0.1,4.2c5.5-7.4,8.4-13.8,10-23.2c-4,0.4-7.9,1-11.7,2.3
		C305.7,288.7,306.3,294.3,306.3,299.9"/>
	<path class="st0" d="M300.1,270.6c1.2,2.8,2.3,5.7,3.3,8.6c4.4-1.4,8.6-2.2,13.2-2.4c0-0.3,0-0.6,0-1c0-6-0.9-10.7-2.9-16.5
		C309.6,263.7,305.1,267.3,300.1,270.6"/>
	<path class="st0" d="M316.6,276.8c-4.6,0.3-8.8,1-13.2,2.4c-0.9-2.9-2-5.8-3.3-8.6c5-3.3,9.4-7,13.6-11.3c2,5.8,2.9,10.4,2.9,16.5
		C316.6,276.2,316.6,276.5,316.6,276.8"/>
	<path class="st0" d="M316.6,276.8c-4.6,0.3-8.8,1-13.2,2.4c-0.9-2.9-2-5.8-3.3-8.6c5-3.3,9.4-7,13.6-11.3c2,5.8,2.9,10.4,2.9,16.5
		C316.6,276.2,316.6,276.5,316.6,276.8"/>
	<path class="st0" d="M301.7,241.9c3.1,2.8,7.5,8.2,10,13c-4,4.7-8.5,8.3-13.6,11.8c-2.2-3.9-5-8.1-7.7-11.7
		C295.1,251.3,298.8,247.1,301.7,241.9"/>
	<path class="st0" d="M301.7,241.9c3.1,2.8,7.5,8.2,10,13c-4,4.7-8.5,8.3-13.6,11.8c-2.2-3.9-5-8.1-7.7-11.7
		C295.1,251.3,298.8,247.1,301.7,241.9"/>
	<path class="st0" d="M238.9,219.3c37.3,2.9,52.3,12.4,60.2,20.1c-2.7,4.9-6.6,8.9-11.1,12.4c-8.7-9.7-17.3-15.3-29-19.9
		c2.1-0.4,4.7-0.7,6.6-0.9c0.4,0.1,4.8,0.9,11.7,3.5l0.2-0.4C269.2,228.1,254.7,223,238.9,219.3"/>
	<path class="st0" d="M238.9,219.3c37.3,2.9,52.3,12.4,60.2,20.1c-2.7,4.9-6.6,8.9-11.1,12.4c-8.7-9.7-17.3-15.3-29-19.9
		c2.1-0.4,4.7-0.7,6.6-0.9c0.4,0.1,4.8,0.9,11.7,3.5l0.2-0.4C269.2,228.1,254.7,223,238.9,219.3"/>
	<path class="st0" d="M230.4,286.2c-0.9,0-1.9,0-2.8,0c-0.9-3.7-1.3-7.3-1.3-10.9c0-6.8,1.5-13.5,4.5-19.9
		c11.4,4.2,22.8,8.4,34.2,8.4c7.4,0,14.8-1.8,22.2-6.4c2.8,3.6,5.5,7.4,7.7,11.5C276,280.1,252.5,286.2,230.4,286.2"/>
	<path class="st0" d="M230.4,286.2c-0.9,0-1.9,0-2.8,0c-0.9-3.7-1.3-7.3-1.3-10.9c0-6.8,1.5-13.5,4.5-19.9
		c11.4,4.2,22.8,8.4,34.2,8.4c7.4,0,14.8-1.8,22.2-6.4c2.8,3.6,5.5,7.4,7.7,11.5C276,280.1,252.5,286.2,230.4,286.2"/>
	<path class="st0" d="M271,320.5c-19.3-0.3-35.2-12.1-42.1-30c0.2,0,0.5,0,0.7,0c23.3,0,46.9-5.9,67.1-17.7c1.1,2.6,2.1,5.3,2.9,8.1
		C284,288.6,277.2,305.2,271,320.5"/>
	<path class="st0" d="M271,320.5c-19.3-0.3-35.2-12.1-42.1-30c0.2,0,0.5,0,0.7,0c23.3,0,46.9-5.9,67.1-17.7c1.1,2.6,2.1,5.3,2.9,8.1
		C284,288.6,277.2,305.2,271,320.5"/>
	<path class="st0" d="M306.2,304.2c0.1-1.4,0.1-2.8,0.1-4.2c0-5.6-0.6-11.2-1.8-16.8c3.8-1.2,7.7-1.9,11.7-2.3
		C314.5,290.4,311.6,296.8,306.2,304.2"/>
	<path class="st0" d="M306.2,304.2c0.1-1.4,0.1-2.8,0.1-4.2c0-5.6-0.6-11.2-1.8-16.8c3.8-1.2,7.7-1.9,11.7-2.3
		C314.5,290.4,311.6,296.8,306.2,304.2"/>
	<path class="st0" d="M284.9,254c-6.6,4-13.2,5.5-19.9,5.5c-10.6,0-21.4-3.9-32-7.8c1.9-3,3.9-5.9,6.3-8.4c0.2,0,0.4,0,0.6,0
		c6.8,0,17.8,5.1,23.3,8.1l0.3-0.3c-15.9-18.8-56.8-21.9-83.3-22c-2.6,0-5.1,0-7.5,0.1c10.2-2.6,21.6-4,33.2-4
		C235.4,225.3,266.5,234,284.9,254"/>
	<path class="st0" d="M284.9,254c-6.6,4-13.2,5.5-19.9,5.5c-10.6,0-21.4-3.9-32-7.8c1.9-3,3.9-5.9,6.3-8.4c0.2,0,0.4,0,0.6,0
		c6.8,0,17.8,5.1,23.3,8.1l0.3-0.3c-15.9-18.8-56.8-21.9-83.3-22c-2.6,0-5.1,0-7.5,0.1c10.2-2.6,21.6-4,33.2-4
		C235.4,225.3,266.5,234,284.9,254"/>
	<path class="st0" d="M300.5,309.8c-7.2,6.1-15.8,9.3-25.1,10.4c5.6-13.7,11.4-28.5,25.5-35.2c0.7,4,1.2,8.1,1.2,12.2
		C302.1,301.5,301.6,305.7,300.5,309.8"/>
	<path class="st0" d="M300.5,309.8c-7.2,6.1-15.8,9.3-25.1,10.4c5.6-13.7,11.4-28.5,25.5-35.2c0.7,4,1.2,8.1,1.2,12.2
		C302.1,301.5,301.6,305.7,300.5,309.8"/>
	<polygon class="st0" points="263.7,217.2 271.8,214.3 278,221.3 277.2,212.2 285.1,208.8 276.5,206 275.2,196.9 270.7,204.3 
		262,202 267.7,209.4 	"/>
	<polygon class="st2" points="220.5,223.7 226.1,221 230.8,225.1 229.9,218.9 235.3,215.8 229.1,214.7 227.8,208.6 224.9,214.1 
		218.6,213.5 223,218 	"/>
	<polygon class="st2" points="157.1,236.2 160.8,234.4 163.9,237.1 163.3,233 166.9,230.9 162.8,230.2 161.9,226.2 160,229.9 
		155.9,229.5 158.8,232.4 	"/>
	<path class="st3" d="M297.4,292.2l0-0.8l-5.2,8.8l1.5-7.7l-0.4-0.2c-7.7,9.3-10.6,16-13,24.2l-0.1,0.4l0.4-0.1
		c8.6-3,13-6.4,14.9-7.9l0,0l0,0c1.3-2.8,1.9-8.4,1.9-15.3C297.4,293.1,297.4,292.7,297.4,292.2"/>
	<path class="st3" d="M279.9,271.9c-8.4,1.7-18.1,2.7-27.1,2.7c-1.3,0-2.7,0-4-0.1l19.2-5.7l0-0.4c-12.7-0.6-22.5-0.8-34.8-6.6
		l-0.2-0.1l-0.1,0.2c-1.8,3.3-2.9,7.9-2.9,12.6c0,2.7,0.3,5.4,1.1,7.8l0,0.1l0.1,0c0,0,0.4,0,1.3,0c5.5,0,28.3-0.6,47.5-10.2
		L279.9,271.9z"/>
	<path class="st3" d="M284.1,287.5c-9.7,7.2-17,13-31.2,15.7c13.2-6.9,22.1-11.6,30.4-20l-0.3-0.3c-14.8,8.6-34,12.3-47.6,12.8
		l-0.4,0l0.2,0.3c11.2,17.7,25.3,19.3,29.9,19.3h0c1,0,1.5-0.1,1.5-0.1l0.1,0l0.1-0.1c6-9.5,9.8-18.6,17.5-27.3L284.1,287.5z"/>
	<path class="st2" d="M309.1,253.7c-1.3,1.4-2.5,2.6-3.7,3.7c-1.4-3-3-5.8-4.9-8.5c1-1.2,1.9-2.4,2.8-3.7
		C305.7,247.9,307.7,251,309.1,253.7 M314.2,272.5c-1.5,0.2-2.9,0.4-4.2,0.7c-0.3-2.2-0.7-4.4-1.3-6.6c1.5-1.2,2.9-2.5,4.3-3.9
		C313.8,266,314.2,269,314.2,272.5 M309.4,292.6l0-0.7c0.6-3.1,1-6.2,1.1-9.2c0.8-0.2,1.6-0.4,2.5-0.5
		C312,285.9,310.9,289.3,309.4,292.6 M274.2,228.6c-0.7-0.4-1.4-0.7-2.2-1c11.4,3.4,19.1,7.8,23.4,11.2c-0.7,1-1.4,1.9-2.2,2.9
		C288,236,281.6,231.6,274.2,228.6"/>
</g>
</svg>
