<svg xmlns="http://www.w3.org/2000/svg" viewBox="0 0 1053.1 614.3"><defs><style>.a{fill:#fff;}.b{fill:#c80f2e;}.c{fill:#1d4289;}</style></defs><title>g3063</title><path class="a" d="M63.2,0H207.5a63.1,63.1,0,0,1,63.2,63.2V551.1a63.1,63.1,0,0,1-63.2,63.2H63.2A63.1,63.1,0,0,1,0,551.1V63.2A63.1,63.1,0,0,1,63.2,0Z"/><path class="b" d="M171.7,112.6l.2,2.1c4.3,2.5,6.6,4.6,11,7.5,11.7,7.4,26.1,20.6,24.3,65.8,3.3,9.9,4.8,29.2,7.8,35.3,6,12.2,10.2,20.1,12,31.5,0,0,1.8,17.8,4,19.1,12.1,2.7,8.6,3.9,10.3,6.1s8.9,2.3,8.9,8.8a37.8,37.8,0,0,1,5.7,10.1V63.7A48.7,48.7,0,0,0,207.3,15H160.9c7.4,2.7,11.7,5.9,14.1,10.8,6,.5,13,13.9,2,33.8,4.9,3.3,1.1,8.3-2.4,13.9-1.1,1.8-2.1,5.1-5.4,4.9-4.4,9-9.4,17.5-13.3,18-1.1,1.4-1.9,5.2-.2,7,5.7,2.6,12.5,5.9,16,9.2Z"/><path class="b" d="M215,598.6h-.5c21.3-13,8.1-37.5,4.1-51.9l.8-2.5c1-2-1.2-6.7-1.2-6.7-2.7-2.1-3.3-14.2-4.7-19.7-2.3-9,4.1-24.8,4.1-30.1s-4.1-12.7-11.4-22c-1.8-2.1-7.1-47.7-11.9-59.2-6.6-16-8.6-13.4-16.5-32.5-6-13.4-1.3-33-14.9-78.8l3-2.8s-10.9-39.8-14.4-50.7-9.9-11.6-9.9-11.6l.4-5.6c.5-1.7,13.2-34.8,14.3-35.9s18.4-13.3,18.7-11.4c1.5,8.1,8.6,49.4,11.7,55.9s13.7,26.8,18.5,39.4A43.4,43.4,0,1,0,256,330.7V550.6a48.2,48.2,0,0,1-40.9,48Z"/><path class="c" d="M145.6,15c-15.8,6.2-18,13-18.6,35-2.6.3-8.2-2.3-6.3,11,0,0,1,9,4.6,7.5-2.8,19.4-.6,24.2-13.5,25.6-2.8.3-6.1.5-10.3.7l-1.3,1.8c-17.6,1.6-26.3.5-37.7,15.5-4.3,5.7-9,13.9-14.7,25.4,0,0-5.3,13-6.8,18.3-5.1,10.6-17.5,34.1-21.1,49.1-1.2,5.2-3.5,6.7-.2,14.2,4.8,10.6-3.2,13.4,24.3,12.6v6.4s-7.3,6.3-8.9,10-5.7,22.8-5.5,31.8c.5,23.5,19.6,43,25.2,66.4l12.8,1.8c6.9,15.9,37.2,58.8,44.2,65.8l.3.3c1.6,4,9.4,9.1,14,14.1A310.5,310.5,0,0,0,158.6,458a201.5,201.5,0,0,0,20,13.7c-.2-.1,4.1,8.6,6.3,15.7-8.7,7,8.2,19.9,13.4,41.2.3,2.8-5,5.7,2.8,12.7-.4,32.2-10.2,49,6.2,57.9H62.5a48.8,48.8,0,0,1-47.6-48.6V63.7A48.7,48.7,0,0,1,62.5,15Z"/><path class="c" d="M343.5,14.8V598.5h63.1c.2-150.3,3.6-301.3-5.7-449.8l72.8,449.8h90.5V14.8H501.7c-1.2,154.7,4.3,307.3,14.8,458.4L440.9,14.8Z"/><path class="c" d="M890.5,14.4,828.4,598.6h77.2l10.1-118.1h50.5l10.1,118.1h76.8L992.8,14.4Zm50.4,164.9,19.5,232.6H921.5Z"/><path class="c" d="M612.8,14.8V598.2H725.7c18.5,0,81.5-16.2,81.5-97.2V384.5c0-12.3.1-50.8-33.6-73.4,21.1,0,33.6-40.8,33.6-77.8v-125c0-48.7-30.3-93.7-91.2-93.5Zm69.6,74.5h34.3c15.7,0,20.9,17.4,20.9,30.7V255.9c0,23.2-7.6,25-23.4,25H682.4Zm0,255.3h34.3c15.7,0,20.9,17.3,20.9,30.6V496.6c0,15.8-7.9,27.8-23.4,27.8l-31.8.4V344.6Z"/></svg>